<svg xmlns="http://www.w3.org/2000/svg" viewBox="0 0 510 510" height="510" width="510"><path d="M59.707 284.854L163.573 69.037 282.988 44.78l149.268 116.927 4.976 217.683-156.11 92.671-187.207-65.305z" style="isolation:auto;mix-blend-mode:normal;marker:none" color="#000" overflow="visible" fill="#fff" fill-rule="evenodd" stroke="#000"/><path d="M255 0C114.75 0 0 114.75 0 255s114.75 255 255 255 255-114.75 255-255S395.25 0 255 0zm0 76.5c43.35 0 76.5 33.15 76.5 76.5s-33.15 76.5-76.5 76.5-76.5-33.15-76.5-76.5 33.15-76.5 76.5-76.5zm0 362.1c-63.75 0-119.85-33.149-153-81.6 0-51 102-79.05 153-79.05S408 306 408 357c-33.15 48.45-89.25 81.6-153 81.6z" fill="#dfb927"/></svg>